<?xml version="1.0" encoding="UTF-8" standalone="no"?><!DOCTYPE svg PUBLIC "-//W3C//DTD SVG 1.1//EN" "http://www.w3.org/Graphics/SVG/1.1/DTD/svg11.dtd"><svg width="100%" height="100%" viewBox="0 0 162 48" version="1.1" xmlns="http://www.w3.org/2000/svg" xmlns:xlink="http://www.w3.org/1999/xlink" xml:space="preserve" xmlns:serif="http://www.serif.com/" style="fill-rule:evenodd;clip-rule:evenodd;stroke-linejoin:round;stroke-miterlimit:2;"><path d="M162,12c0,-6.623 -5.377,-12 -12,-12l-138,0c-6.623,0 -12,5.377 -12,12l0,24c0,6.623 5.377,12 12,12l138,0c6.623,0 12,-5.377 12,-12l0,-24Z"/><path d="M157,14.5c0,-5.243 -4.257,-9.5 -9.5,-9.5l-133,0c-5.243,0 -9.5,4.257 -9.5,9.5l0,19c0,5.243 4.257,9.5 9.5,9.5l133,0c5.243,0 9.5,-4.257 9.5,-9.5l0,-19Z" style="fill:#fff;"/><g transform="matrix(16,0,0,16,147.991,29.8182)"></g><text x="14.003px" y="29.818px" style="font-family:'Inter-SemiBold', 'Inter';font-weight:600;font-size:16px;">MADE BY C<tspan x="102.878px 113.276px " y="29.818px 29.818px ">AY</tspan>DN</text></svg>