<svg xmlns="http://www.w3.org/2000/svg" width="178.86" height="35" viewBox="0 0 178.86 35"><rect class="svg__rect" x="0" y="0" width="95.99" height="35" fill="#000000"/><rect class="svg__rect" x="93.99" y="0" width="84.87" height="35" fill="#FFFFFF"/><path class="svg__text" d="M15.69 22L14.22 22L14.22 13.47L16.14 13.47L18.60 20.01L21.06 13.47L22.97 13.47L22.97 22L21.49 22L21.49 19.19L21.64 15.43L19.12 22L18.06 22L15.55 15.43L15.69 19.19L15.69 22ZM28.49 22L26.95 22L30.17 13.47L31.50 13.47L34.73 22L33.18 22L32.49 20.01L29.18 20.01L28.49 22ZM30.83 15.28L29.60 18.82L32.07 18.82L30.83 15.28ZM41.14 22L38.69 22L38.69 13.47L41.21 13.47Q42.34 13.47 43.21 13.97Q44.09 14.48 44.57 15.40Q45.05 16.33 45.05 17.52L45.05 17.52L45.05 17.95Q45.05 19.16 44.57 20.08Q44.08 21.00 43.19 21.50Q42.30 22 41.14 22L41.14 22ZM40.17 14.66L40.17 20.82L41.14 20.82Q42.30 20.82 42.93 20.09Q43.55 19.36 43.56 17.99L43.56 17.99L43.56 17.52Q43.56 16.13 42.96 15.40Q42.35 14.66 41.21 14.66L41.21 14.66L40.17 14.66ZM55.09 22L49.51 22L49.51 13.47L55.05 13.47L55.05 14.66L51.00 14.66L51.00 17.02L54.50 17.02L54.50 18.19L51.00 18.19L51.00 20.82L55.09 20.82L55.09 22ZM68.38 22L65.26 22L65.26 13.47L68.19 13.47Q69.64 13.47 70.39 14.05Q71.15 14.63 71.15 15.78L71.15 15.78Q71.15 16.36 70.83 16.83Q70.51 17.30 69.90 17.56L69.90 17.56Q70.60 17.75 70.97 18.26Q71.35 18.78 71.35 19.51L71.35 19.51Q71.35 20.71 70.58 21.36Q69.81 22 68.38 22L68.38 22ZM66.75 18.15L66.75 20.82L68.39 20.82Q69.09 20.82 69.48 20.47Q69.88 20.13 69.88 19.51L69.88 19.51Q69.88 18.18 68.52 18.15L68.52 18.15L66.75 18.15ZM66.75 14.66L66.75 17.06L68.20 17.06Q68.89 17.06 69.28 16.75Q69.67 16.43 69.67 15.86L69.67 15.86Q69.67 15.23 69.31 14.95Q68.95 14.66 68.19 14.66L68.19 14.66L66.75 14.66ZM77.86 18.86L75.00 13.47L76.64 13.47L78.61 17.51L80.57 13.47L82.21 13.47L79.35 18.86L79.35 22L77.86 22L77.86 18.86Z" fill="#FFFFFF"/><path class="svg__text" d="M107.75 17.80L107.75 17.80Q107.75 16.54 108.35 15.54Q108.95 14.55 110.00 13.99Q111.05 13.43 112.37 13.43L112.37 13.43Q113.52 13.43 114.44 13.84Q115.37 14.25 115.98 15.02L115.98 15.02L114.47 16.39Q113.66 15.40 112.49 15.40L112.49 15.40Q111.80 15.40 111.27 15.70Q110.74 16 110.44 16.54Q110.15 17.09 110.15 17.80L110.15 17.80Q110.15 18.51 110.44 19.05Q110.74 19.60 111.27 19.90Q111.80 20.20 112.49 20.20L112.49 20.20Q113.66 20.20 114.47 19.22L114.47 19.22L115.98 20.58Q115.37 21.35 114.45 21.76Q113.52 22.17 112.37 22.17L112.37 22.17Q111.05 22.17 110.00 21.61Q108.95 21.05 108.35 20.05Q107.75 19.06 107.75 17.80ZM121.94 22L119.51 22L123.22 13.60L125.56 13.60L129.28 22L126.81 22L126.15 20.37L122.60 20.37L121.94 22ZM124.37 15.93L123.29 18.61L125.45 18.61L124.37 15.93ZM135.56 18.95L132.35 13.60L134.86 13.60L136.85 16.94L138.85 13.60L141.15 13.60L137.93 18.99L137.93 22L135.56 22L135.56 18.95ZM149.21 22L145.23 22L145.23 13.60L149.21 13.60Q150.59 13.60 151.65 14.12Q152.72 14.63 153.31 15.58Q153.90 16.53 153.90 17.80L153.90 17.80Q153.90 19.07 153.31 20.02Q152.72 20.97 151.65 21.48Q150.59 22 149.21 22L149.21 22ZM147.61 15.50L147.61 20.10L149.11 20.10Q150.19 20.10 150.84 19.49Q151.50 18.88 151.50 17.80L151.50 17.80Q151.50 16.72 150.84 16.11Q150.19 15.50 149.11 15.50L149.11 15.50L147.61 15.50ZM160.96 22L158.63 22L158.63 13.60L160.58 13.60L164.29 18.07L164.29 13.60L166.62 13.60L166.62 22L164.67 22L160.96 17.52L160.96 22Z" fill="#000000" x="106.99"/></svg>